<?xml version="1.0" encoding="UTF-8"?>
<!-- Generated by SVGo -->
<svg width="298.235mm" height="160.122mm" viewBox="0.000 0.000 298.235 160.122" xmlns="http://www.w3.org/2000/svg" xmlns:xlink="http://www.w3.org/1999/xlink">
<polygon points="291.235,5.001 291.391,5.007 291.547,5.025 291.701,5.056 291.853,5.098 292.000,5.153 292.142,5.218 292.279,5.295 292.410,5.382 292.533,5.480 292.649,5.586 292.755,5.702 292.853,5.825 292.940,5.956 293.017,6.093 293.082,6.235 293.137,6.382 293.179,6.534 293.210,6.688 293.228,6.844 293.235,7.001 293.235,153.122 293.228,153.279 293.210,153.435 293.179,153.589 293.137,153.740 293.082,153.887 293.017,154.030 292.940,154.167 292.853,154.298 292.755,154.421 292.649,154.536 292.533,154.643 292.410,154.740 292.279,154.827 292.142,154.904 292.000,154.970 291.853,155.024 291.701,155.067 291.547,155.097 291.391,155.116 291.235,155.122 7.001,155.122 6.844,155.116 6.688,155.097 6.534,155.067 6.382,155.024 6.235,154.970 6.093,154.904 5.956,154.827 5.825,154.740 5.702,154.643 5.586,154.536 5.480,154.421 5.382,154.298 5.295,154.167 5.218,154.030 5.153,153.887 5.098,153.740 5.056,153.589 5.025,153.435 5.007,153.279 5.000,153.122 5.001,7.001 5.007,6.844 5.025,6.688 5.056,6.534 5.098,6.382 5.153,6.235 5.218,6.093 5.295,5.956 5.382,5.825 5.480,5.702 5.586,5.586 5.702,5.480 5.825,5.382 5.956,5.295 6.093,5.218 6.235,5.153 6.382,5.098 6.534,5.056 6.688,5.025 6.844,5.007 7.001,5.000" style="fill:none;stroke-width:0.050000mm;stroke:blue"/>
<polygon points="7.681,151.123 7.390,151.272 7.158,151.503 7.010,151.795 6.958,152.118 7.010,152.441 7.158,152.733 7.390,152.964 7.681,153.113 8.004,153.164 8.328,153.113 8.619,152.964 8.851,152.733 8.999,152.441 9.050,152.118 8.999,151.795 8.851,151.503 8.619,151.272 8.328,151.123 8.004,151.072" style="fill:none;stroke-width:0.050000mm;stroke:blue"/>
<polygon points="148.794,151.123 148.503,151.272 148.271,151.503 148.123,151.795 148.072,152.118 148.123,152.441 148.271,152.733 148.503,152.964 148.794,153.113 149.118,153.164 149.441,153.113 149.732,152.964 149.964,152.733 150.112,152.441 150.163,152.118 150.112,151.795 149.964,151.503 149.732,151.272 149.441,151.123 149.118,151.072" style="fill:none;stroke-width:0.050000mm;stroke:blue"/>
<polygon points="289.907,151.123 289.616,151.272 289.384,151.503 289.236,151.795 289.185,152.118 289.236,152.441 289.384,152.733 289.616,152.964 289.907,153.113 290.231,153.164 290.554,153.113 290.845,152.964 291.077,152.733 291.225,152.441 291.277,152.118 291.225,151.795 291.077,151.503 290.845,151.272 290.554,151.123 290.231,151.072" style="fill:none;stroke-width:0.050000mm;stroke:blue"/>
<polygon points="11.009,11.008 11.009,149.114 287.227,149.114 287.227,11.008" style="fill:none;stroke-width:0.050000mm;stroke:blue"/>
<polygon points="7.681,79.066 7.390,79.215 7.158,79.446 7.010,79.738 6.958,80.061 7.010,80.384 7.158,80.676 7.390,80.907 7.681,81.056 8.004,81.107 8.328,81.056 8.619,80.907 8.851,80.676 8.999,80.384 9.050,80.061 8.999,79.738 8.851,79.446 8.619,79.215 8.328,79.066 8.004,79.015" style="fill:none;stroke-width:0.050000mm;stroke:blue"/>
<polygon points="289.907,79.066 289.616,79.215 289.384,79.446 289.236,79.738 289.185,80.061 289.236,80.384 289.384,80.676 289.616,80.907 289.907,81.056 290.231,81.107 290.554,81.056 290.845,80.907 291.077,80.676 291.225,80.384 291.277,80.061 291.225,79.738 291.077,79.446 290.845,79.215 290.554,79.066 290.231,79.015" style="fill:none;stroke-width:0.050000mm;stroke:blue"/>
<polygon points="7.681,7.010 7.390,7.158 7.158,7.390 7.010,7.681 6.958,8.004 7.010,8.328 7.158,8.619 7.390,8.851 7.681,8.999 8.004,9.050 8.328,8.999 8.619,8.851 8.851,8.619 8.999,8.328 9.050,8.004 8.999,7.681 8.851,7.390 8.619,7.158 8.328,7.010 8.004,6.958" style="fill:none;stroke-width:0.050000mm;stroke:blue"/>
<polygon points="289.907,7.010 289.616,7.158 289.384,7.390 289.236,7.681 289.185,8.005 289.236,8.328 289.384,8.619 289.616,8.851 289.907,8.999 290.231,9.050 290.554,8.999 290.845,8.851 291.077,8.619 291.225,8.328 291.277,8.005 291.225,7.681 291.077,7.390 290.845,7.158 290.554,7.010 290.231,6.958" style="fill:none;stroke-width:0.050000mm;stroke:blue"/>
<polygon points="148.794,7.010 148.503,7.158 148.271,7.390 148.123,7.681 148.072,8.005 148.123,8.328 148.271,8.619 148.503,8.851 148.794,8.999 149.118,9.050 149.441,8.999 149.732,8.851 149.964,8.619 150.112,8.328 150.164,8.005 150.112,7.681 149.964,7.390 149.732,7.158 149.441,7.010 149.118,6.958" style="fill:none;stroke-width:0.050000mm;stroke:blue"/>
</svg>