<?xml version="1.0" encoding="UTF-8"?>
<!-- Generated by SVGo -->
<svg width="298.235mm" height="160.122mm" viewBox="0.000 0.000 298.235 160.122" xmlns="http://www.w3.org/2000/svg" xmlns:xlink="http://www.w3.org/1999/xlink">
<polygon points="291.235,5.001 291.391,5.007 291.547,5.025 291.701,5.056 291.853,5.098 292.000,5.153 292.142,5.218 292.279,5.295 292.410,5.382 292.533,5.480 292.649,5.586 292.755,5.702 292.853,5.825 292.940,5.956 293.017,6.093 293.082,6.235 293.137,6.382 293.179,6.534 293.210,6.688 293.228,6.844 293.235,7.001 293.235,153.122 293.228,153.279 293.210,153.435 293.179,153.589 293.137,153.740 293.082,153.887 293.017,154.030 292.940,154.167 292.853,154.298 292.755,154.421 292.649,154.536 292.533,154.643 292.410,154.740 292.279,154.827 292.142,154.904 292.000,154.970 291.853,155.024 291.701,155.067 291.547,155.097 291.391,155.116 291.235,155.122 7.001,155.122 6.844,155.116 6.688,155.097 6.534,155.067 6.382,155.024 6.235,154.970 6.093,154.904 5.956,154.827 5.825,154.740 5.702,154.643 5.586,154.536 5.480,154.421 5.382,154.298 5.295,154.167 5.218,154.030 5.153,153.887 5.098,153.740 5.056,153.589 5.025,153.435 5.007,153.279 5.000,153.122 5.001,7.001 5.007,6.844 5.025,6.688 5.056,6.534 5.098,6.382 5.153,6.235 5.218,6.093 5.295,5.956 5.382,5.825 5.480,5.702 5.586,5.586 5.702,5.480 5.825,5.382 5.956,5.295 6.093,5.218 6.235,5.153 6.382,5.098 6.534,5.056 6.688,5.025 6.844,5.007 7.001,5.000" style="fill:none;stroke-width:0.050000mm;stroke:blue"/>
<polygon points="7.681,151.123 7.390,151.272 7.158,151.503 7.010,151.795 6.958,152.118 7.010,152.441 7.158,152.733 7.390,152.964 7.681,153.113 8.004,153.164 8.328,153.113 8.619,152.964 8.851,152.733 8.999,152.441 9.050,152.118 8.999,151.795 8.851,151.503 8.619,151.272 8.328,151.123 8.004,151.072" style="fill:none;stroke-width:0.050000mm;stroke:blue"/>
<polygon points="148.794,151.123 148.503,151.272 148.271,151.503 148.123,151.795 148.072,152.118 148.123,152.441 148.271,152.733 148.503,152.964 148.794,153.113 149.118,153.164 149.441,153.113 149.732,152.964 149.964,152.733 150.112,152.441 150.163,152.118 150.112,151.795 149.964,151.503 149.732,151.272 149.441,151.123 149.118,151.072" style="fill:none;stroke-width:0.050000mm;stroke:blue"/>
<polygon points="289.907,151.123 289.616,151.272 289.384,151.503 289.236,151.795 289.185,152.118 289.236,152.441 289.384,152.733 289.616,152.964 289.907,153.113 290.231,153.164 290.554,153.113 290.845,152.964 291.077,152.733 291.225,152.441 291.277,152.118 291.225,151.795 291.077,151.503 290.845,151.272 290.554,151.123 290.231,151.072" style="fill:none;stroke-width:0.050000mm;stroke:blue"/>
<polygon points="204.034,132.596 204.034,137.296 202.501,137.296 202.501,134.066 200.776,134.066 200.776,133.146 197.484,133.146 197.484,134.066 195.758,134.066 195.758,137.296 194.934,137.296 194.934,140.088 195.758,140.088 195.758,146.358 197.484,146.358 197.484,147.338 200.776,147.338 200.776,146.358 202.501,146.358 202.501,141.888 204.034,141.888 204.034,146.588 218.026,146.588 218.026,141.888 219.559,141.888 219.559,146.358 221.284,146.358 221.284,147.338 224.576,147.338 224.576,146.358 226.301,146.358 226.301,140.088 227.126,140.088 227.126,137.296 226.301,137.296 226.301,134.066 224.576,134.066 224.576,133.146 221.284,133.146 221.284,134.066 219.559,134.066 219.559,137.296 218.026,137.296 218.026,132.596" style="fill:none;stroke-width:0.050000mm;stroke:blue"/>
<polygon points="165.934,132.596 165.934,137.296 164.401,137.296 164.401,134.066 162.676,134.066 162.676,133.146 159.384,133.146 159.384,134.066 157.659,134.066 157.659,137.296 156.834,137.296 156.834,140.088 157.659,140.088 157.659,146.358 159.384,146.358 159.384,147.338 162.676,147.338 162.676,146.358 164.401,146.358 164.401,141.888 165.934,141.888 165.934,146.588 179.926,146.588 179.926,141.888 181.459,141.888 181.459,146.358 183.184,146.358 183.184,147.338 186.476,147.338 186.476,146.358 188.201,146.358 188.201,140.088 189.026,140.088 189.026,137.296 188.201,137.296 188.201,134.066 186.476,134.066 186.476,133.146 183.184,133.146 183.184,134.066 181.459,134.066 181.459,137.296 179.926,137.296 179.926,132.596" style="fill:none;stroke-width:0.050000mm;stroke:blue"/>
<polygon points="99.259,132.596 99.259,137.296 97.726,137.296 97.726,134.066 96.000,134.066 96.000,133.146 92.708,133.146 92.708,134.066 90.983,134.066 90.983,137.296 90.158,137.296 90.158,140.088 90.983,140.088 90.983,146.358 92.708,146.358 92.708,147.338 96.000,147.338 96.000,146.358 97.726,146.358 97.726,141.888 99.259,141.888 99.259,146.588 113.250,146.588 113.250,141.888 114.783,141.888 114.783,146.358 116.509,146.358 116.509,147.338 119.801,147.338 119.801,146.358 121.525,146.358 121.525,140.088 122.351,140.088 122.351,137.296 121.525,137.296 121.525,134.066 119.801,134.066 119.801,133.146 116.509,133.146 116.509,134.066 114.783,134.066 114.783,137.296 113.250,137.296 113.250,132.596" style="fill:none;stroke-width:0.050000mm;stroke:blue"/>
<polygon points="61.158,132.596 61.158,137.296 59.626,137.296 59.626,134.066 57.901,134.066 57.901,133.146 54.609,133.146 54.609,134.066 52.883,134.066 52.883,137.296 52.058,137.296 52.058,140.088 52.883,140.088 52.883,146.358 54.609,146.358 54.609,147.338 57.901,147.338 57.901,146.358 59.626,146.358 59.626,141.888 61.158,141.888 61.158,146.588 75.150,146.588 75.150,141.888 76.684,141.888 76.684,146.358 78.409,146.358 78.409,147.338 81.701,147.338 81.701,146.358 83.426,146.358 83.426,140.088 84.251,140.088 84.251,137.296 83.426,137.296 83.426,134.066 81.701,134.066 81.701,133.146 78.409,133.146 78.409,134.066 76.684,134.066 76.684,137.296 75.150,137.296 75.150,132.596" style="fill:none;stroke-width:0.050000mm;stroke:blue"/>
<polygon points="270.709,132.596 270.709,146.588 284.701,146.588 284.701,132.596" style="fill:none;stroke-width:0.050000mm;stroke:blue"/>
<polygon points="251.659,132.596 251.659,146.588 265.651,146.588 265.651,132.596" style="fill:none;stroke-width:0.050000mm;stroke:blue"/>
<polygon points="232.608,132.596 232.608,146.588 246.601,146.588 246.601,132.596" style="fill:none;stroke-width:0.050000mm;stroke:blue"/>
<polygon points="132.596,132.596 132.596,146.588 146.588,146.588 146.588,132.596" style="fill:none;stroke-width:0.050000mm;stroke:blue"/>
<polygon points="32.584,132.596 32.584,146.588 46.576,146.588 46.576,132.596" style="fill:none;stroke-width:0.050000mm;stroke:blue"/>
<polygon points="13.534,132.596 13.534,146.588 27.526,146.588 27.526,132.596" style="fill:none;stroke-width:0.050000mm;stroke:blue"/>
<polygon points="180.221,113.546 180.221,118.246 178.688,118.246 178.688,115.016 176.963,115.016 176.963,114.096 173.671,114.096 173.671,115.016 171.946,115.016 171.946,118.246 171.121,118.246 171.121,121.038 171.946,121.038 171.946,127.308 173.671,127.308 173.671,128.288 176.963,128.288 176.963,127.308 178.688,127.308 178.688,122.838 180.221,122.838 180.221,127.538 194.213,127.538 194.213,122.838 195.746,122.838 195.746,127.308 197.471,127.308 197.471,128.288 200.763,128.288 200.763,127.308 202.488,127.308 202.488,121.038 203.313,121.038 203.313,118.246 202.488,118.246 202.488,115.016 200.763,115.016 200.763,114.096 197.471,114.096 197.471,115.016 195.746,115.016 195.746,118.246 194.213,118.246 194.213,113.546" style="fill:none;stroke-width:0.050000mm;stroke:blue"/>
<polygon points="132.596,113.546 132.596,118.246 123.913,118.246 123.913,115.016 122.188,115.016 122.188,114.096 118.896,114.096 118.896,115.016 117.171,115.016 117.171,118.246 116.346,118.246 116.346,121.038 117.171,121.038 117.171,127.308 118.896,127.308 118.896,128.288 122.188,128.288 122.188,127.308 123.913,127.308 123.913,122.838 132.596,122.838 132.596,127.538 146.588,127.538 146.588,122.838 155.271,122.838 155.271,127.308 156.996,127.308 156.996,128.288 160.288,128.288 160.288,127.308 162.013,127.308 162.013,121.038 162.838,121.038 162.838,118.246 162.013,118.246 162.013,115.016 160.288,115.016 160.288,114.096 156.996,114.096 156.996,115.016 155.271,115.016 155.271,118.246 146.588,118.246 146.588,113.546" style="fill:none;stroke-width:0.050000mm;stroke:blue"/>
<polygon points="84.971,113.546 84.971,118.246 83.438,118.246 83.438,115.016 81.713,115.016 81.713,114.096 78.421,114.096 78.421,115.016 76.696,115.016 76.696,118.246 75.871,118.246 75.871,121.038 76.696,121.038 76.696,127.308 78.421,127.308 78.421,128.288 81.713,128.288 81.713,127.308 83.438,127.308 83.438,122.838 84.971,122.838 84.971,127.538 98.963,127.538 98.963,122.838 100.496,122.838 100.496,127.308 102.221,127.308 102.221,128.288 105.513,128.288 105.513,127.308 107.238,127.308 107.238,121.038 108.063,121.038 108.063,118.246 107.238,118.246 107.238,115.016 105.513,115.016 105.513,114.096 102.221,114.096 102.221,115.016 100.496,115.016 100.496,118.246 98.963,118.246 98.963,113.546" style="fill:none;stroke-width:0.050000mm;stroke:blue"/>
<polygon points="270.709,113.546 270.709,127.538 284.701,127.538 284.701,113.546" style="fill:none;stroke-width:0.050000mm;stroke:blue"/>
<polygon points="251.659,113.546 251.659,127.538 265.651,127.538 265.651,113.546" style="fill:none;stroke-width:0.050000mm;stroke:blue"/>
<polygon points="232.609,113.546 232.609,127.538 246.601,127.538 246.601,113.546" style="fill:none;stroke-width:0.050000mm;stroke:blue"/>
<polygon points="211.177,113.546 211.177,127.538 225.169,127.538 225.169,113.546" style="fill:none;stroke-width:0.050000mm;stroke:blue"/>
<polygon points="54.015,113.546 54.015,127.538 68.007,127.538 68.007,113.546" style="fill:none;stroke-width:0.050000mm;stroke:blue"/>
<polygon points="32.584,113.546 32.584,127.538 46.576,127.538 46.576,113.546" style="fill:none;stroke-width:0.050000mm;stroke:blue"/>
<polygon points="13.534,113.546 13.534,127.538 27.526,127.538 27.526,113.546" style="fill:none;stroke-width:0.050000mm;stroke:blue"/>
<polygon points="258.802,94.496 258.802,99.196 257.268,99.196 257.268,95.966 255.544,95.966 255.544,95.046 252.252,95.046 252.252,95.966 250.527,95.966 250.527,99.196 249.702,99.196 249.702,101.988 250.527,101.988 250.527,108.258 252.252,108.258 252.252,109.238 255.544,109.238 255.544,108.258 257.268,108.258 257.268,103.788 258.802,103.788 258.802,108.488 272.794,108.488 272.794,103.788 274.327,103.788 274.327,108.258 276.052,108.258 276.052,109.238 279.344,109.238 279.344,108.258 281.069,108.258 281.069,101.988 281.894,101.988 281.894,99.196 281.069,99.196 281.069,95.966 279.344,95.966 279.344,95.046 276.052,95.046 276.052,95.966 274.327,95.966 274.327,99.196 272.794,99.196 272.794,94.496" style="fill:none;stroke-width:0.050000mm;stroke:blue"/>
<polygon points="25.440,94.496 25.440,99.196 23.907,99.196 23.907,95.966 22.182,95.966 22.182,95.046 18.890,95.046 18.890,95.966 17.165,95.966 17.165,99.196 16.339,99.196 16.339,101.988 17.165,101.988 17.165,108.258 18.890,108.258 18.890,109.238 22.182,109.238 22.182,108.258 23.907,108.258 23.907,103.788 25.440,103.788 25.440,108.488 39.432,108.488 39.432,103.788 40.965,103.788 40.965,108.258 42.690,108.258 42.690,109.238 45.982,109.238 45.982,108.258 47.707,108.258 47.707,101.988 48.532,101.988 48.532,99.196 47.707,99.196 47.707,95.966 45.982,95.966 45.982,95.046 42.690,95.046 42.690,95.966 40.965,95.966 40.965,99.196 39.432,99.196 39.432,94.496" style="fill:none;stroke-width:0.050000mm;stroke:blue"/>
<polygon points="227.846,94.496 227.846,108.488 241.838,108.488 241.838,94.496" style="fill:none;stroke-width:0.050000mm;stroke:blue"/>
<polygon points="208.796,94.496 208.796,108.488 222.788,108.488 222.788,94.496" style="fill:none;stroke-width:0.050000mm;stroke:blue"/>
<polygon points="189.746,94.496 189.746,108.488 203.738,108.488 203.738,94.496" style="fill:none;stroke-width:0.050000mm;stroke:blue"/>
<polygon points="170.696,94.496 170.696,108.488 184.688,108.488 184.688,94.496" style="fill:none;stroke-width:0.050000mm;stroke:blue"/>
<polygon points="151.646,94.496 151.646,108.488 165.638,108.488 165.638,94.496" style="fill:none;stroke-width:0.050000mm;stroke:blue"/>
<polygon points="132.596,94.496 132.596,108.488 146.588,108.488 146.588,94.496" style="fill:none;stroke-width:0.050000mm;stroke:blue"/>
<polygon points="113.546,94.496 113.546,108.488 127.538,108.488 127.538,94.496" style="fill:none;stroke-width:0.050000mm;stroke:blue"/>
<polygon points="94.496,94.496 94.496,108.488 108.488,108.488 108.488,94.496" style="fill:none;stroke-width:0.050000mm;stroke:blue"/>
<polygon points="75.446,94.496 75.446,108.488 89.438,108.488 89.438,94.496" style="fill:none;stroke-width:0.050000mm;stroke:blue"/>
<polygon points="56.396,94.496 56.396,108.488 70.388,108.488 70.388,94.496" style="fill:none;stroke-width:0.050000mm;stroke:blue"/>
<polygon points="263.565,75.446 263.565,89.438 277.557,89.438 277.557,75.446" style="fill:none;stroke-width:0.050000mm;stroke:blue"/>
<polygon points="237.371,75.446 237.371,89.438 251.363,89.438 251.363,75.446" style="fill:none;stroke-width:0.050000mm;stroke:blue"/>
<polygon points="218.321,75.446 218.321,89.438 232.313,89.438 232.313,75.446" style="fill:none;stroke-width:0.050000mm;stroke:blue"/>
<polygon points="199.271,75.446 199.271,89.438 213.263,89.438 213.263,75.446" style="fill:none;stroke-width:0.050000mm;stroke:blue"/>
<polygon points="180.221,75.446 180.221,89.438 194.213,89.438 194.213,75.446" style="fill:none;stroke-width:0.050000mm;stroke:blue"/>
<polygon points="161.171,75.446 161.171,89.438 175.163,89.438 175.163,75.446" style="fill:none;stroke-width:0.050000mm;stroke:blue"/>
<polygon points="142.121,75.446 142.121,89.438 156.113,89.438 156.113,75.446" style="fill:none;stroke-width:0.050000mm;stroke:blue"/>
<polygon points="123.071,75.446 123.071,89.438 137.063,89.438 137.063,75.446" style="fill:none;stroke-width:0.050000mm;stroke:blue"/>
<polygon points="104.021,75.446 104.021,89.438 118.013,89.438 118.013,75.446" style="fill:none;stroke-width:0.050000mm;stroke:blue"/>
<polygon points="84.971,75.446 84.971,89.438 98.963,89.438 98.963,75.446" style="fill:none;stroke-width:0.050000mm;stroke:blue"/>
<polygon points="65.921,75.446 65.921,89.438 79.913,89.438 79.913,75.446" style="fill:none;stroke-width:0.050000mm;stroke:blue"/>
<polygon points="46.871,75.446 46.871,89.438 60.863,89.438 60.863,75.446" style="fill:none;stroke-width:0.050000mm;stroke:blue"/>
<polygon points="20.677,75.446 20.677,89.438 34.669,89.438 34.669,75.446" style="fill:none;stroke-width:0.050000mm;stroke:blue"/>
<polygon points="7.681,79.066 7.390,79.215 7.158,79.446 7.010,79.738 6.958,80.061 7.010,80.384 7.158,80.676 7.390,80.907 7.681,81.056 8.004,81.107 8.328,81.056 8.619,80.907 8.851,80.676 8.999,80.384 9.050,80.061 8.999,79.738 8.851,79.446 8.619,79.215 8.328,79.066 8.004,79.015" style="fill:none;stroke-width:0.050000mm;stroke:blue"/>
<polygon points="289.907,79.066 289.616,79.215 289.384,79.446 289.236,79.738 289.185,80.061 289.236,80.384 289.384,80.676 289.616,80.907 289.907,81.056 290.231,81.107 290.554,81.056 290.845,80.907 291.077,80.676 291.225,80.384 291.277,80.061 291.225,79.738 291.077,79.446 290.845,79.215 290.554,79.066 290.231,79.015" style="fill:none;stroke-width:0.050000mm;stroke:blue"/>
<polygon points="270.709,56.396 270.709,70.388 284.701,70.388 284.701,56.396" style="fill:none;stroke-width:0.050000mm;stroke:blue"/>
<polygon points="251.659,56.396 251.659,70.388 265.651,70.388 265.651,56.396" style="fill:none;stroke-width:0.050000mm;stroke:blue"/>
<polygon points="232.609,56.396 232.609,70.388 246.601,70.388 246.601,56.396" style="fill:none;stroke-width:0.050000mm;stroke:blue"/>
<polygon points="213.559,56.396 213.559,70.388 227.551,70.388 227.551,56.396" style="fill:none;stroke-width:0.050000mm;stroke:blue"/>
<polygon points="194.509,56.396 194.509,70.388 208.501,70.388 208.501,56.396" style="fill:none;stroke-width:0.050000mm;stroke:blue"/>
<polygon points="175.459,56.396 175.459,70.388 189.451,70.388 189.451,56.396" style="fill:none;stroke-width:0.050000mm;stroke:blue"/>
<polygon points="156.409,56.396 156.409,70.388 170.401,70.388 170.401,56.396" style="fill:none;stroke-width:0.050000mm;stroke:blue"/>
<polygon points="137.358,56.396 137.358,70.388 151.351,70.388 151.351,56.396" style="fill:none;stroke-width:0.050000mm;stroke:blue"/>
<polygon points="118.309,56.396 118.309,70.388 132.300,70.388 132.300,56.396" style="fill:none;stroke-width:0.050000mm;stroke:blue"/>
<polygon points="99.259,56.396 99.259,70.388 113.250,70.388 113.250,56.396" style="fill:none;stroke-width:0.050000mm;stroke:blue"/>
<polygon points="80.209,56.396 80.209,70.388 94.200,70.388 94.200,56.396" style="fill:none;stroke-width:0.050000mm;stroke:blue"/>
<polygon points="61.158,56.396 61.158,70.388 75.150,70.388 75.150,56.396" style="fill:none;stroke-width:0.050000mm;stroke:blue"/>
<polygon points="42.109,56.396 42.109,70.388 56.101,70.388 56.101,56.396" style="fill:none;stroke-width:0.050000mm;stroke:blue"/>
<polygon points="18.296,56.396 18.296,70.388 32.288,70.388 32.288,56.396" style="fill:none;stroke-width:0.050000mm;stroke:blue"/>
<polygon points="265.946,37.346 265.946,51.338 279.938,51.338 279.938,37.346" style="fill:none;stroke-width:0.050000mm;stroke:blue"/>
<polygon points="242.134,37.346 242.134,51.338 256.126,51.338 256.126,37.346" style="fill:none;stroke-width:0.050000mm;stroke:blue"/>
<polygon points="223.084,37.346 223.084,51.338 237.076,51.338 237.076,37.346" style="fill:none;stroke-width:0.050000mm;stroke:blue"/>
<polygon points="204.034,37.346 204.034,51.338 218.026,51.338 218.026,37.346" style="fill:none;stroke-width:0.050000mm;stroke:blue"/>
<polygon points="184.984,37.346 184.984,51.338 198.976,51.338 198.976,37.346" style="fill:none;stroke-width:0.050000mm;stroke:blue"/>
<polygon points="165.934,37.346 165.934,51.338 179.926,51.338 179.926,37.346" style="fill:none;stroke-width:0.050000mm;stroke:blue"/>
<polygon points="146.884,37.346 146.884,51.338 160.876,51.338 160.876,37.346" style="fill:none;stroke-width:0.050000mm;stroke:blue"/>
<polygon points="127.834,37.346 127.834,51.338 141.826,51.338 141.826,37.346" style="fill:none;stroke-width:0.050000mm;stroke:blue"/>
<polygon points="108.784,37.346 108.784,51.338 122.775,51.338 122.775,37.346" style="fill:none;stroke-width:0.050000mm;stroke:blue"/>
<polygon points="89.734,37.346 89.734,51.338 103.726,51.338 103.726,37.346" style="fill:none;stroke-width:0.050000mm;stroke:blue"/>
<polygon points="70.684,37.346 70.684,51.338 84.676,51.338 84.676,37.346" style="fill:none;stroke-width:0.050000mm;stroke:blue"/>
<polygon points="51.634,37.346 51.634,51.338 65.626,51.338 65.626,37.346" style="fill:none;stroke-width:0.050000mm;stroke:blue"/>
<polygon points="32.584,37.346 32.584,51.338 46.576,51.338 46.576,37.346" style="fill:none;stroke-width:0.050000mm;stroke:blue"/>
<polygon points="13.534,37.346 13.534,51.338 27.526,51.338 27.526,37.346" style="fill:none;stroke-width:0.050000mm;stroke:blue"/>
<polygon points="270.709,13.534 270.709,27.526 284.701,27.526 284.701,13.534" style="fill:none;stroke-width:0.050000mm;stroke:blue"/>
<polygon points="246.896,13.534 246.896,27.526 260.888,27.526 260.888,13.534" style="fill:none;stroke-width:0.050000mm;stroke:blue"/>
<polygon points="227.846,13.534 227.846,27.526 241.838,27.526 241.838,13.534" style="fill:none;stroke-width:0.050000mm;stroke:blue"/>
<polygon points="208.796,13.534 208.796,27.526 222.788,27.526 222.788,13.534" style="fill:none;stroke-width:0.050000mm;stroke:blue"/>
<polygon points="189.746,13.534 189.746,27.526 203.738,27.526 203.738,13.534" style="fill:none;stroke-width:0.050000mm;stroke:blue"/>
<polygon points="170.696,13.534 170.696,27.526 184.688,27.526 184.688,13.534" style="fill:none;stroke-width:0.050000mm;stroke:blue"/>
<polygon points="151.646,13.534 151.646,27.526 165.638,27.526 165.638,13.534" style="fill:none;stroke-width:0.050000mm;stroke:blue"/>
<polygon points="132.596,13.534 132.596,27.526 146.588,27.526 146.588,13.534" style="fill:none;stroke-width:0.050000mm;stroke:blue"/>
<polygon points="113.546,13.534 113.546,27.526 127.538,27.526 127.538,13.534" style="fill:none;stroke-width:0.050000mm;stroke:blue"/>
<polygon points="94.496,13.534 94.496,27.526 108.488,27.526 108.488,13.534" style="fill:none;stroke-width:0.050000mm;stroke:blue"/>
<polygon points="75.446,13.534 75.446,27.526 89.438,27.526 89.438,13.534" style="fill:none;stroke-width:0.050000mm;stroke:blue"/>
<polygon points="56.396,13.534 56.396,27.526 70.388,27.526 70.388,13.534" style="fill:none;stroke-width:0.050000mm;stroke:blue"/>
<polygon points="37.346,13.534 37.346,27.526 51.338,27.526 51.338,13.534" style="fill:none;stroke-width:0.050000mm;stroke:blue"/>
<polygon points="13.534,13.534 13.534,27.526 27.526,27.526 27.526,13.534" style="fill:none;stroke-width:0.050000mm;stroke:blue"/>
<polygon points="7.681,7.010 7.390,7.158 7.158,7.390 7.010,7.681 6.958,8.004 7.010,8.328 7.158,8.619 7.390,8.851 7.681,8.999 8.004,9.050 8.328,8.999 8.619,8.851 8.851,8.619 8.999,8.328 9.050,8.004 8.999,7.681 8.851,7.390 8.619,7.158 8.328,7.010 8.004,6.958" style="fill:none;stroke-width:0.050000mm;stroke:blue"/>
<polygon points="289.907,7.010 289.616,7.158 289.384,7.390 289.236,7.681 289.185,8.005 289.236,8.328 289.384,8.619 289.616,8.851 289.907,8.999 290.231,9.050 290.554,8.999 290.845,8.851 291.077,8.619 291.225,8.328 291.277,8.005 291.225,7.681 291.077,7.390 290.845,7.158 290.554,7.010 290.231,6.958" style="fill:none;stroke-width:0.050000mm;stroke:blue"/>
<polygon points="148.794,7.010 148.503,7.158 148.271,7.390 148.123,7.681 148.072,8.005 148.123,8.328 148.271,8.619 148.503,8.851 148.794,8.999 149.118,9.050 149.441,8.999 149.732,8.851 149.964,8.619 150.112,8.328 150.164,8.005 150.112,7.681 149.964,7.390 149.732,7.158 149.441,7.010 149.118,6.958" style="fill:none;stroke-width:0.050000mm;stroke:blue"/>
</svg>